<svg width="526" height="526" viewBox="0 0 526 526" fill="none" xmlns="http://www.w3.org/2000/svg">
<path d="M17.5118 232.003C21.6173 236.636 26.3243 240.698 31.5118 244.077L149.632 320.464L166.038 402.495L150.374 470.292L95.0808 453.581H95.0847C87.1355 451.183 78.5227 452.687 71.8547 457.636C65.1906 462.589 61.2607 470.398 61.2567 478.702V525.128H78.7567V478.702C78.7567 475.932 80.0692 473.327 82.2919 471.678C84.5146 470.026 87.3857 469.526 90.0341 470.327L154.296 489.753C155.12 489.999 155.972 490.124 156.835 490.128H370.875C371.766 490.132 372.652 489.999 373.5 489.733L434.918 470.569V470.573C437.574 469.737 440.473 470.214 442.719 471.866C444.965 473.515 446.293 476.132 446.293 478.921V525.128H463.793V478.921C463.793 470.569 459.821 462.718 453.098 457.769C446.372 452.824 437.692 451.371 429.719 453.859L377.938 470.004L367.579 402.395L375.794 320.145L493.504 244.02C498.688 240.656 503.395 236.614 507.504 232.004V525.124H525.004V0.123726H507.504V140.294C501.703 133.727 494.707 128.325 486.891 124.376L350.001 55.9697V43.8757C349.985 32.2777 345.372 21.1567 337.173 12.9537C328.97 4.75453 317.849 0.141727 306.251 0.125727H227.501C213.716 0.192133 200.513 5.68432 190.751 15.4107C182.755 5.98882 171.134 0.394726 158.782 0.0197262C146.427 -0.351364 134.489 4.52753 125.938 13.4497C117.383 22.3755 113.016 34.5087 113.915 46.8327C114.81 59.1607 120.892 70.5317 130.645 78.1217L38.125 124.376C30.3047 128.329 23.305 133.731 17.5 140.294V0.123726H0V525.124H17.5L17.5118 232.003ZM350.012 131.733L444.836 179.788L366.086 227.038L301.984 211.007L297.511 206.511V200.761C312.081 198.636 325.402 191.343 335.042 180.214C344.679 169.081 349.991 154.855 350.011 140.132L350.012 131.733ZM157.512 17.6331C162.727 17.6253 167.821 19.18 172.145 22.0901C176.473 25.0003 179.828 29.1371 181.785 33.9692C183.047 37.0473 185.942 39.145 189.262 39.3833C192.582 39.6176 195.746 37.9497 197.43 35.0825C200.461 29.7778 204.84 25.3715 210.121 22.3094C215.406 19.243 221.406 17.6298 227.512 17.6337H306.262C313.223 17.6337 319.903 20.3993 324.824 25.3212C329.745 30.2431 332.511 36.9231 332.511 43.8831V78.8832H288.761C277.296 78.8714 266.554 84.477 260.003 93.8872C253.453 103.297 251.925 115.317 255.914 126.067C259.906 136.813 268.906 144.926 280.012 147.782V157.634H224.617C204.422 142.685 192.508 119.044 192.512 93.9148V66.7898C192.508 63.1492 190.246 59.8914 186.84 58.6101C183.43 57.3289 179.582 58.2936 177.184 61.0319C172.27 66.7975 165.082 70.1218 157.512 70.1336C148.133 70.1336 139.469 65.1296 134.778 57.0085C130.09 48.8874 130.09 38.8795 134.778 30.7585C139.469 22.6374 148.133 17.6335 157.512 17.6335L157.512 17.6331ZM216.844 173.573C218.305 174.585 220.039 175.128 221.816 175.124H227.512V206.511L223.039 210.984L158.902 227.015L80.1521 179.765L181.372 128.456V128.452C188.36 146.733 200.727 162.468 216.845 173.573L216.844 173.573ZM45.9638 140.053L151.884 87.0652L151.888 87.0612C159.735 88.4479 167.822 87.3464 175.013 83.905V112.132L66.0627 167.327C63.1213 168.815 61.2658 171.835 61.2658 175.132V183.882C61.2658 186.952 62.8752 189.8 65.508 191.382L153.008 243.882C154.367 244.702 155.926 245.136 157.516 245.132C158.235 245.132 158.946 245.042 159.641 244.87L229.641 227.37C231.18 226.983 232.582 226.19 233.703 225.069L242.453 216.319C244.094 214.679 245.016 212.452 245.016 210.132V175.132H288.766C291.086 175.132 293.313 174.21 294.953 172.569C296.594 170.929 297.516 168.702 297.516 166.382V140.132C297.516 137.811 296.594 135.585 294.953 133.944C293.313 132.304 291.086 131.382 288.766 131.382C282.512 131.382 276.735 128.046 273.61 122.632C270.485 117.218 270.485 110.546 273.61 105.132C276.735 99.7177 282.512 96.3817 288.766 96.3817H332.516V140.132C332.5 151.73 327.887 162.851 319.688 171.054C311.485 179.253 300.364 183.866 288.766 183.882C283.934 183.882 280.016 187.8 280.016 192.632V210.132C280.016 212.452 280.938 214.679 282.578 216.319L291.328 225.069C292.449 226.19 293.852 226.983 295.391 227.37L365.391 244.87C366.086 245.042 366.797 245.132 367.516 245.132C369.106 245.136 370.664 244.702 372.024 243.882L459.524 191.382C462.156 189.8 463.766 186.952 463.766 183.882V175.132C463.766 171.835 461.91 168.815 458.969 167.327L350.019 112.132V75.538L479.079 140.069C489.946 145.51 498.536 154.62 503.333 165.788C508.13 176.956 508.821 189.46 505.286 201.085C501.751 212.714 494.216 222.714 484.013 229.319L362.763 307.792C360.529 309.233 359.076 311.612 358.806 314.257L350.056 401.757C349.986 402.487 350.005 403.226 350.119 403.952L360.646 472.632H167.805L183.555 404.601C183.837 403.39 183.852 402.136 183.61 400.918L166.11 313.418C165.653 311.101 164.274 309.07 162.286 307.793L41.026 229.383C30.819 222.777 23.276 212.77 19.737 201.137C16.1979 189.5 16.8893 176.992 21.6901 165.817C26.4909 154.645 35.0881 145.532 45.9601 140.09L45.9638 140.053Z" fill="black"/>
<path d="M229.452 313.373C232.675 313.377 235.882 312.877 238.948 311.885C249.553 308.49 260.21 298.26 250.788 268.854C245.862 253.491 231.417 247.198 213.995 252.772H213.991C204.851 255.237 197.249 261.588 193.202 270.147C190.507 276.342 190.69 283.417 193.71 289.459C196.983 296.279 202.026 302.092 208.315 306.299C214.6 310.506 221.901 312.947 229.452 313.373V313.373ZM209.327 276.982C211.487 273.193 215.116 270.463 219.354 269.439C221.483 268.705 223.709 268.299 225.963 268.24C229.791 267.908 233.28 270.451 234.135 274.201C236.901 282.83 239.061 293.451 233.627 295.201C228.667 295.927 223.607 294.998 219.229 292.556C214.854 290.111 211.405 286.291 209.425 281.689C208.675 280.228 208.632 278.506 209.311 277.01L209.327 276.982Z" fill="black"/>
<path d="M293.832 312.363C302.726 311.945 311.27 308.769 318.281 303.281C328.894 295.641 325.359 283.008 320.031 263.906L319.769 262.969L319.765 262.973C318.246 258.527 315.285 254.715 311.355 252.137C307.425 249.562 302.749 248.367 298.066 248.742C292.609 248.242 287.132 249.516 282.453 252.371C277.774 255.226 274.14 259.515 272.09 264.598C267.652 277.336 268.789 291.348 275.219 303.203C279.531 309.144 286.496 312.574 293.832 312.363L293.832 312.363ZM288.808 269.707C291.011 267.176 294.308 265.871 297.648 266.207H297.839C301.339 266.25 302.836 267.399 302.898 267.641L303.168 268.578C305.492 275.305 306.988 282.289 307.621 289.379C301.918 293.352 292.648 297.387 289.351 292.879C286.323 285.485 286.128 277.234 288.808 269.707L288.808 269.707Z" fill="black"/>
<path d="M247.422 342.643L247.16 341.706C245.637 337.26 242.68 333.448 238.75 330.87C234.82 328.295 230.145 327.1 225.461 327.479H225.082C219.703 327.139 214.352 328.483 209.77 331.327C205.188 334.167 201.606 338.362 199.516 343.335C195.075 356.065 196.211 370.081 202.649 381.929C206.95 387.882 213.919 391.323 221.258 391.116C230.172 390.706 238.735 387.534 245.758 382.034C256.305 374.398 252.77 361.761 247.422 342.643L247.422 342.643ZM235.024 368.147C229.321 372.12 220.063 376.163 216.762 371.647C213.727 364.257 213.535 356.002 216.219 348.479C218.418 345.948 221.711 344.639 225.047 344.979H225.25C228.707 345.022 230.246 346.171 230.309 346.413L230.571 347.35C232.903 354.073 234.399 361.057 235.024 368.147L235.024 368.147Z" fill="black"/>
<path d="M284.032 331.823C279.008 333.94 263.47 342.831 274.223 368.303C276.598 374.655 280.621 380.264 285.879 384.549C289.5 387.33 293.938 388.85 298.504 388.873C301.539 388.854 304.539 388.221 307.324 387.018C314.418 384.002 319.894 378.119 322.402 370.83C324.949 363.541 324.672 355.56 321.621 348.467C318.828 341.287 313.305 335.502 306.262 332.385C299.219 329.268 291.227 329.065 284.032 331.822L284.032 331.823ZM305.907 364.96C305.032 367.612 303.075 369.769 300.516 370.894C299.192 371.695 297.5 371.546 296.336 370.527C293.594 368.081 291.532 364.972 290.348 361.495C285.563 350.163 289.395 348.554 290.828 347.94H290.832C291.977 347.46 293.211 347.214 294.453 347.214C299.407 347.479 303.739 350.64 305.504 355.272C306.856 358.351 306.997 361.819 305.907 364.995L305.907 364.96Z" fill="black"/>
<path d="M226.552 428.913C226.552 447.456 235.915 455.714 256.907 455.714C280.216 455.714 298.485 442.362 298.485 425.335C298.485 412.394 288.212 398.569 259.364 398.569C238.817 398.569 226.552 409.909 226.552 428.913V428.913ZM259.364 416.069C262.977 416.069 280.985 416.514 280.985 425.335C280.985 431.46 270.688 438.214 256.907 438.214C244.052 438.214 244.052 436.245 244.052 428.913C244.052 421.206 246.649 416.069 259.364 416.069V416.069Z" fill="black"/>
</svg>
