<svg width="515" height="538" viewBox="0 0 515 538" fill="none" xmlns="http://www.w3.org/2000/svg">
<path d="M415.522 301.509C415.522 276.868 435.682 256.708 460.323 256.708C484.964 256.708 505.124 276.868 505.124 301.509C505.124 326.15 484.964 346.31 460.323 346.31C435.678 346.31 415.522 326.15 415.522 301.509Z" fill="black"/>
<path d="M506.242 393.349C505.121 394.471 452.48 437.029 455.844 434.79C446.883 441.509 433.446 440.392 425.606 431.431C424.485 430.31 393.126 389.99 394.247 392.232C389.767 387.752 385.286 374.31 374.087 379.912C359.528 385.514 369.607 382.15 36.9673 383.271C23.5263 383.271 13.4473 373.193 13.4473 359.751C13.4473 347.431 22.4082 337.353 34.7283 336.231C327.048 308.231 356.168 304.872 358.408 304.872C362.889 304.872 378.568 303.751 385.287 314.95C386.408 316.072 448.006 394.47 444.646 389.989L479.365 361.989C489.443 354.15 504.006 356.388 510.724 367.591C517.443 375.427 514.084 387.747 506.244 393.349L506.242 393.349Z" fill="black"/>
<path d="M215.042 10.3104C220.644 1.34953 231.843 -3.13057 241.921 2.47063L251.999 8.07223C241.921 15.912 232.96 27.1112 228.479 40.5522L221.76 37.1928C213.921 32.7084 210.561 20.3878 215.042 10.3098L215.042 10.3104Z" fill="black"/>
<path d="M249.762 50.6314C255.364 25.9904 280 11.4324 303.524 17.0294C328.165 22.631 342.723 47.2674 337.126 70.7914C331.525 95.4324 306.888 109.99 283.364 104.393C258.723 99.909 244.161 75.2684 249.762 50.6314C248.641 51.7486 249.762 51.7486 249.762 50.6314V50.6314Z" fill="black"/>
<path d="M247.522 293.669L129.922 304.868C137.762 243.266 164.641 185.028 199.363 131.268C208.324 118.948 222.883 111.108 238.562 113.346C256.484 116.706 268.8 132.385 269.921 142.467C271.042 153.666 262.082 182.787 258.722 192.865C260.961 205.185 265.441 218.627 273.281 230.943C280 242.142 288.961 253.341 301.281 261.181C310.242 266.783 311.359 279.103 305.762 286.943C300.16 294.783 288.961 298.142 280 291.424C269.922 284.705 258.719 274.623 248.641 261.186C248.641 273.51 247.524 283.588 247.524 293.67L247.522 293.669Z" fill="black"/>
<path d="M344.962 241.029C353.923 246.631 355.04 258.951 349.443 266.791C343.841 275.752 331.521 276.869 323.681 271.272C305.759 257.831 288.962 237.67 275.521 216.393C278.88 196.233 283.36 190.631 287.841 164.873C303.525 190.631 323.681 226.471 344.962 241.029L344.962 241.029Z" fill="black"/>
<path d="M431.202 459.429V537.827H388.643V447.108H238.563C240.802 462.788 240.801 482.948 236.325 512.069C234.087 524.389 222.884 532.229 211.684 529.991C200.485 527.753 191.524 517.671 193.762 505.35C199.364 470.631 197.121 453.83 194.883 445.991H170.242L162.402 510.952C161.281 522.151 150.082 531.112 138.882 529.991C127.683 528.87 118.722 517.671 119.843 506.471L127.683 447.112L87.363 447.109V537.832H43.679V447.113H21.281C10.082 447.109 0 437.031 0 425.832C0 414.633 10.078 404.551 21.281 404.551H376.321L408.801 444.871C414.403 451.589 422.242 457.191 431.203 459.43L431.202 459.429Z" fill="black"/>
</svg>
